<svg data-name="Layer 1" xmlns="http://www.w3.org/2000/svg" width="790.52" height="730.49">
  <path d="M47.91 58.34A47.97 47.97 0 000 106.25v552a47.97 47.97 0 0047.91 47.9h404.93a47.97 47.97 0 0047.91-47.9v-552a47.97 47.97 0 00-47.91-47.91z" fill="#3f3d56"/>
  <path fill="#fff" d="M24.92 92.37h450.92v579.75H24.92z"/>
  <path fill="#0e0a43" d="M83.86 196.29h333.02v21.88H83.86zM83.86 254.63h333.02v21.88H83.86zM83.86 312.97h333.02v21.88H83.86zM83.86 371.31h333.02v21.88H83.86zM83.86 429.65h333.02v21.88H83.86zM83.86 487.99h333.02v21.88H83.86zM83.86 546.33h333.02v21.88H83.86z"/>
  <path fill="#e6e6e6" d="M91.36 116.05L421.58 55.6l77.7 424.57-330.23 60.44z"/>
  <path fill="#0e0a43" d="M148.45 184.24l243.89-44.63 2.93 16.03-243.89 44.63zM156.27 226.97l243.9-44.63 2.92 16.03L159.2 243zM164.08 269.7l243.89-44.64 2.93 16.03-243.89 44.63zM171.9 312.42l243.89-44.64 2.93 16.03-243.89 44.63zM179.72 355.14l243.89-44.63 2.93 16.03-243.89 44.63zM187.54 397.86l243.89-44.63 2.93 16.03-243.89 44.63zM195.36 440.6l243.9-44.64 2.92 16.03-243.89 44.63z"/>
  <path fill="#e6e6e6" d="M561.88 537.16l93.43-17.1L677.3 640.2l-93.44 17.1z"/>
  <path fill="#fff" d="M578.03 556.46l69-12.63.83 4.53-69 12.63zM580.24 568.55l69-12.63.83 4.54-69 12.62zM582.45 580.64l69-12.63.83 4.54-69 12.62zM584.67 592.73l69-12.63.83 4.53-69 12.63zM586.88 604.82l69-12.63.83 4.53-69 12.63zM589.09 616.9l69-12.62.83 4.53-69 12.63zM591.3 629l69-12.63.83 4.54-69 12.62z"/>
  <path d="M333.87 30.39h-39.74v-8.14A22.25 22.25 0 00271.88 0h-43a22.25 22.25 0 00-22.26 22.25v8.14h-39.74a22.25 22.25 0 00-22.25 22.25v61.6h211.49v-61.6a22.25 22.25 0 00-22.25-22.25zM236.11 629.96c6.57-4.5 13.32-9.17 21.13-11.21 7.11-1.87 15.29-1.37 20.92 3.84 4.54 4.2 6.46 10.67 3.1 16.2a10.3 10.3 0 01-6.83 4.97 8.22 8.22 0 01-7.39-2.89c-1.76-1.95-2.82-4.83-1.88-7.4.98-2.7 3.62-4.36 6.21-5.28a46 46 0 019.27-1.92l12.9-1.76 52.77-7.23 58.76-8.04a1.84 1.84 0 001.27-2.24 1.87 1.87 0 00-2.24-1.28l-116.93 16.01c-4.23.58-8.52 1-12.7 1.85a21.36 21.36 0 00-9.13 3.78c-5.6 4.44-5.2 12.28-.04 16.92 5.22 4.7 12.78 3.89 17.36-1.3a15.74 15.74 0 001.2-19.29c-5-7.54-14.11-10.43-22.82-9.36-10.06 1.23-18.6 6.9-26.77 12.49-1.92 1.31-.1 4.47 1.84 3.14z" fill="#3f3d56"/>
  <path d="M646.4 494.84l1.22 12.15s-7.3 26.74 8.51 26.74 3.65-26.74 3.65-26.74l1.21-9.72zM756.8 454.34l-5.58 10.87s-20.63 18.5-7.36 27.08 17.57-20.48 17.57-20.48l6.3-7.5z" fill="#a0616a"/>
  <path d="M665.85 505.78l17.02 115.46 8.5 82.65s7.3 18.23 31.6 2.43l-3.64-47.4-2.43-42.54s-2.43-41.33-4.86-48.62 1.21-31.6 1.21-31.6l9.73-40.1z" fill="#2f2e41"/>
  <path d="M693.8 701.46l-9.72 10.94s-14.58-4.87-18.23 4.86 27.96 12.15 27.96 12.15 32.81 2.43 32.81 0-.88-21.02-5.3-22.06-27.51-5.9-27.51-5.9zM712.04 499.7l17.01 121.54 8.51 82.65s7.3 18.23 31.6 2.43l-3.64-47.4-2.43-42.54s-2.43-41.33-4.87-48.62 1.22-31.6 1.22-31.6l-2.43-44.97z" fill="#2f2e41"/>
  <path d="M740 701.46l-9.73 10.94s-14.59-4.87-18.23 4.86 27.95 12.15 27.95 12.15 32.82 2.43 32.82 0-.88-21.02-5.3-22.06-27.52-5.9-27.52-5.9z" fill="#2f2e41"/>
  <circle cx="675.58" cy="282.14" r="25.52" fill="#a0616a"/>
  <path fill="#a0616a" d="M694.41 293.69l10.94 18.23-27.95 12.15-3.65-21.88 20.66-8.5z"/>
  <path d="M708.4 310.1s-25.53-2.44-35.25 13.36l-24 18.24a13.83 13.83 0 00-5.34 12.82l20.83 157.33 30.38-1.21 49.83-9.73 14.59-3.64-7.3-64.42s-8.5-25.52 1.22-42.54l-4.86-59.55-34.03-13.37z" fill="#575a89"/>
  <path d="M651.27 346.56l-1.83-3.04s-2.43 0-2.43 4.86-4.25 110-4.25 110l-1.22 40.1 23.1 2.43 8.5-75.35-3.64-49.83zM731.49 328.32l17.01 2.44a112.95 112.95 0 0117.02 23.09c7.29 13.37 29.17 38.9 24.3 58.34s-19.44 54.7-19.44 54.7l-23.1-9.73s18.24-42.54 17.02-46.19-15.8-25.52-15.8-25.52z" fill="#575a89"/>
  <path d="M657.95 268.16s-20.66-1.21-7.29-14.58c0 0 10.94-4.86 15.8-2.43 0 0 7.3-4.87 7.3-2.43 0 0 25.52-7.3 29.16 18.23s-2.43 37.67-2.43 37.67l-17.01-1.21s3.64-20.66-9.73-18.23c0 0-10.94 3.64-12.15 0s-3.65-17.02-3.65-17.02z" fill="#2f2e41"/>
  <path opacity=".2" d="M667.68 499.09l10.94-72.92-7.3-44.98 2.43 48.92-7.29 68.98h1.22z"/>
</svg>
