<svg width="234" height="234" fill="none" xmlns="http://www.w3.org/2000/svg">
  <g filter="url(#filter0_ddd)">
    <circle cx="117" cy="113" r="113" fill="url(#paint0_linear)"/>
  </g>
  <g filter="url(#filter1_d)">
    <path d="M128.07 190.94l-14.15 2.8-13.74-85.79-22.56 74.3-16.95 1.99-25.57-72.12-12.37 78.4-14.42-1.97 18.93-99.67H41.4l27.55 78.82 24.54-78 16.07-.41 18.52 101.65z" fill="#fff"/>
    <path d="M128.07 190.94l.2.98.96-.2-.17-.96-.99.18zm-14.15 2.8l-.99.16.17 1.03 1.02-.2-.2-.99zm-13.74-85.79l.99-.16-1.95-.13.96.3zm-22.56 74.3l.12 1 .65-.07.19-.63-.96-.3zm-16.95 1.99l-.94.33.26.76.8-.1-.12-.99zM35.1 112.12l.95-.33-1.93.17.98.16zm-12.37 78.4l-.14 1 .98.13.15-.97-.99-.15zm-14.42-1.97l-.99-.19-.2 1.03 1.05.15.14-1zm18.93-99.67v-1h-.83l-.15.81.98.19zm14.15 0l.95-.33-.24-.67h-.7v1zm27.55 78.82l-.94.33 1 2.84.9-2.87-.96-.3zm24.54-78l-.02-1-.72.02-.21.68.95.3zm16.07-.41l.98-.18-.15-.84-.86.02.03 1zm18.33 100.67l-14.15 2.8.39 1.96 14.15-2.8-.4-1.96zm-12.97 3.62l-13.74-85.79-1.98.32 13.74 85.79 1.98-.32zm-15.69-85.92l-22.55 74.3 1.91.59 22.56-74.3-1.92-.59zm-21.71 73.6l-16.96 1.99.24 1.98 16.95-1.98-.23-1.99zm-15.9 2.65l-25.56-72.12-1.89.66 25.57 72.12 1.88-.66zm-27.5-71.94l-12.37 78.4 1.98.31 12.37-78.4-1.97-.31zm-11.24 77.57l-14.43-1.98-.27 1.98 14.42 1.98.28-1.98zm-13.58-.8l18.93-99.67-1.96-.38-18.94 99.67 1.97.37zm17.95-98.86H41.4v-2H27.24v2zm13.2-.67L68 168.03l1.89-.66-27.55-78.82-1.9.66zM69.9 168l24.54-78-1.91-.6-24.54 78 1.9.6zm23.6-77.3l16.07-.41-.05-2-16.06.4.05 2zm15.06-1.23l18.53 101.65 1.97-.36-18.53-101.65-1.97.36z" fill="#EC3434" fill-opacity=".71"/>
  </g>
  <g filter="url(#filter2_d)">
    <path d="M205.18 114.1c.05 4.24-.27 8.44-.95 12.58a55.87 55.87 0 01-3.15 11.76 46.52 46.52 0 01-5.6 10.25 35.76 35.76 0 01-18.53 13.47 42.01 42.01 0 01-13.05 1.92c-4.84 0-9.07-.78-12.72-2.33a30.82 30.82 0 01-9.57-6.15 38.73 38.73 0 01-6.84-9.1 59.15 59.15 0 01-4.44-10.8 83.14 83.14 0 01-2.46-11.48 99.72 99.72 0 01-.96-11.2c-.09-4.52 0-9.46.28-14.84a253.99 253.99 0 014.1-35.62l14.83 2.12c-1.05 4.51-1.89 8.87-2.53 13.06-.64 4.2-1.14 8.13-1.5 11.82-.37 3.7-.62 7.07-.75 10.12-.1 3.05-.14 5.67-.14 7.86 0 2.55.09 5.4.27 8.55.23 3.14.64 6.35 1.23 9.64.64 3.23 1.5 6.4 2.6 9.5a32.22 32.22 0 004.44 8.2 21.42 21.42 0 006.7 5.74c2.65 1.46 5.8 2.2 9.44 2.2 3.78 0 7.2-.88 10.25-2.6a22.88 22.88 0 007.8-7.46 36.34 36.34 0 004.85-11.75 60.32 60.32 0 001.57-15.45c-.1-4.56-.36-9.48-.82-14.77-.37-4.56-.94-9.78-1.71-15.65a260.3 260.3 0 00-3.21-18.73l14.56-1.99a309.7 309.7 0 013.35 20.65c.77 6.2 1.36 11.57 1.77 16.13.46 5.29.76 10.07.9 14.36z" fill="#fff"/>
    <path d="M205.18 114.1h1v-.02l-1 .03zm-.95 12.58l-.99-.16v.01l.99.15zm-3.15 11.76l.93.37-.93-.37zm-5.6 10.25l-.81-.58.8.58zm-8 8.14l.6.8-.6-.8zm-10.53 5.33l-.3-.95.3.95zm-25.77-.4l.4-.93h-.02l-.38.92zm-9.57-6.16l-.7.71.01.01.69-.72zm-6.84-9.1l-.88.48.88-.47zm-4.44-10.8l-.96.29.96-.28zm-2.46-11.48l-1 .14 1-.14zm-.96-11.2l-1 .01 1-.02zm.28-14.84l1 .05-1-.05zm1.23-16.07l-1-.1 1 .1zm2.87-19.55l.14-.99-.95-.13-.18.94.99.18zm14.83 2.12l.97.23.25-1.06-1.08-.16-.14 1zm-4.78 35l-1-.04v.01l1 .03zm.13 16.4l-1 .07v.01l1-.07zm1.23 9.65l-.98.17v.02l.98-.2zm2.6 9.5l-.94.33v.01l.94-.34zm4.44 8.2l-.8.6.01.01.8-.6zm34.18-2.12l-.83-.55.83.55zm4.86-11.75l-.97-.25v.01l.97.24zm1.57-15.45l1-.02-1 .02zm-.82-14.77l-1 .08 1-.08zm-4.92-34.38l-.14-1-1.06.15.22 1.05.98-.2zm14.56-1.99l.98-.19-.18-.93-.94.13.14 1zm3.35 20.65l-1 .12 1-.12zm1.77 16.13l1-.09-1 .09zm-.1 14.37a71.4 71.4 0 01-.95 12.4l1.97.33c.7-4.2 1.02-8.46.97-12.75l-2 .02zm-.95 12.41a54.84 54.84 0 01-3.09 11.55l1.86.72a56.9 56.9 0 003.2-11.96l-1.97-.31zm-3.09 11.54a45.57 45.57 0 01-5.48 10.04l1.62 1.17a47.53 47.53 0 005.72-10.47l-1.86-.74zm-5.49 10.04a36.6 36.6 0 01-7.78 7.92l1.2 1.6a38.61 38.61 0 008.2-8.35l-1.62-1.17zm-7.78 7.92a34.74 34.74 0 01-10.23 5.18l.6 1.9a36.8 36.8 0 0010.83-5.48l-1.2-1.6zm-10.24 5.18a41.02 41.02 0 01-12.74 1.87v2c4.87 0 9.33-.65 13.36-1.97l-.62-1.9zm-12.74 1.87c-4.73 0-8.83-.76-12.33-2.25l-.78 1.84c3.8 1.62 8.17 2.4 13.1 2.4v-2zm-12.34-2.25a29.82 29.82 0 01-9.26-5.96l-1.38 1.45a31.78 31.78 0 009.88 6.36l.76-1.85zm-9.25-5.94a37.68 37.68 0 01-6.66-8.86l-1.75.96a39.68 39.68 0 007 9.32l1.41-1.42zm-6.65-8.85a58.02 58.02 0 01-4.37-10.62l-1.92.58a60.14 60.14 0 004.52 10.98l1.77-.94zm-4.37-10.61a82.17 82.17 0 01-2.43-11.35l-1.98.28c.55 3.92 1.38 7.8 2.49 11.63l1.92-.56zm-2.43-11.35a98.56 98.56 0 01-.95-11.1l-2 .06c.1 3.6.42 7.37.97 11.32l1.98-.28zm-.95-11.09c-.09-4.48 0-9.4.27-14.76l-2-.1c-.27 5.4-.36 10.36-.27 14.9l2-.04zm.27-14.76c.23-4.59.64-9.92 1.23-16.02l-1.99-.2c-.6 6.12-1 11.5-1.23 16.12l2 .1zm1.23-16.01a253 253 0 012.86-19.48l-1.97-.36a255.5 255.5 0 00-2.88 19.63l2 .2zm1.74-18.67l14.83 2.12.28-1.98-14.83-2.12-.28 1.98zm14 .9a173.5 173.5 0 00-2.55 13.14l1.98.3c.63-4.17 1.47-8.5 2.51-12.98l-1.94-.45zM142.6 77.6c-.64 4.2-1.14 8.17-1.5 11.88l1.98.2c.37-3.68.86-7.6 1.5-11.78l-1.98-.3zm-1.5 11.88c-.37 3.7-.63 7.1-.76 10.17l2 .09c.13-3.04.38-6.39.74-10.07l-1.99-.2zm-.76 10.18c-.1 3.06-.14 5.7-.14 7.9h2c0-2.18.05-4.8.14-7.84l-2-.06zm-.14 7.9c0 2.57.1 5.44.27 8.6l2-.12c-.18-3.13-.27-5.96-.27-8.49h-2zm.28 8.61c.23 3.18.64 6.43 1.24 9.74l1.97-.35c-.59-3.25-1-6.43-1.22-9.53l-2 .14zm1.24 9.76a69 69 0 002.64 9.64l1.88-.66a67.1 67.1 0 01-2.56-9.37l-1.96.39zm2.64 9.66a33.21 33.21 0 004.59 8.45l1.6-1.2a31.21 31.21 0 01-4.31-7.95l-1.88.7zm4.6 8.46a22.4 22.4 0 007 6l.97-1.74a20.38 20.38 0 01-6.4-5.48l-1.58 1.22zm7 6c2.82 1.56 6.14 2.32 9.92 2.32v-2c-3.51 0-6.49-.7-8.95-2.06l-.97 1.75zm9.92 2.32c3.94 0 7.53-.9 10.74-2.73l-.98-1.74a19.42 19.42 0 01-9.76 2.47v2zm10.74-2.73a23.9 23.9 0 008.14-7.77l-1.67-1.1a21.88 21.88 0 01-7.45 7.13l.98 1.74zm8.14-7.77a37.36 37.36 0 004.99-12.07l-1.95-.47a35.37 35.37 0 01-4.71 11.44l1.67 1.1zm4.99-12.07a61.3 61.3 0 001.6-15.7l-2 .03a59.34 59.34 0 01-1.54 15.2l1.94.47zm1.6-15.7c-.1-4.59-.37-9.53-.82-14.84l-2 .18c.46 5.26.73 10.16.82 14.7l2-.05zm-.82-14.83c-.37-4.58-.94-9.81-1.72-15.7l-1.98.26c.77 5.86 1.34 11.06 1.7 15.6l2-.16zm-1.72-15.7c-.78-5.91-1.85-12.18-3.22-18.8l-1.96.4c1.36 6.59 2.43 12.8 3.2 18.66l1.98-.27zm-4.07-17.61l14.56-1.99-.27-1.98-14.56 1.98.27 1.99zm13.45-2.79c1.45 7.5 2.56 14.36 3.34 20.58l1.98-.25c-.78-6.27-1.9-13.17-3.36-20.7l-1.96.37zm3.34 20.58c.77 6.2 1.36 11.56 1.77 16.1l2-.18c-.42-4.57-1.01-9.96-1.79-16.17l-1.98.25zm1.77 16.1c.45 5.27.75 10.03.88 14.3l2-.07c-.13-4.3-.43-9.1-.89-14.4l-2 .17z" fill="#EC3434" fill-opacity=".71"/>
  </g>
  <defs>
    <filter id="filter0_ddd" x="0" y="0" width="234" height="234" filterUnits="userSpaceOnUse" color-interpolation-filters="sRGB">
      <feFlood flood-opacity="0" result="BackgroundImageFix"/>
      <feColorMatrix in="SourceAlpha" values="0 0 0 0 0 0 0 0 0 0 0 0 0 0 0 0 0 0 127 0"/>
      <feOffset dy="4"/>
      <feGaussianBlur stdDeviation="2"/>
      <feColorMatrix values="0 0 0 0 0 0 0 0 0 0 0 0 0 0 0 0 0 0 0.25 0"/>
      <feBlend in2="BackgroundImageFix" result="effect1_dropShadow"/>
      <feColorMatrix in="SourceAlpha" values="0 0 0 0 0 0 0 0 0 0 0 0 0 0 0 0 0 0 127 0"/>
      <feOffset dy="4"/>
      <feGaussianBlur stdDeviation="2"/>
      <feColorMatrix values="0 0 0 0 0 0 0 0 0 0 0 0 0 0 0 0 0 0 0.25 0"/>
      <feBlend in2="effect1_dropShadow" result="effect2_dropShadow"/>
      <feColorMatrix in="SourceAlpha" values="0 0 0 0 0 0 0 0 0 0 0 0 0 0 0 0 0 0 127 0"/>
      <feOffset dy="4"/>
      <feGaussianBlur stdDeviation="2"/>
      <feColorMatrix values="0 0 0 0 0 0 0 0 0 0 0 0 0 0 0 0 0 0 0.25 0"/>
      <feBlend in2="effect2_dropShadow" result="effect3_dropShadow"/>
      <feBlend in="SourceGraphic" in2="effect3_dropShadow" result="shape"/>
    </filter>
    <filter id="filter1_d" x="4.31" y="88.88" width="127.77" height="112.86" filterUnits="userSpaceOnUse" color-interpolation-filters="sRGB">
      <feFlood flood-opacity="0" result="BackgroundImageFix"/>
      <feColorMatrix in="SourceAlpha" values="0 0 0 0 0 0 0 0 0 0 0 0 0 0 0 0 0 0 127 0"/>
      <feOffset dy="4"/>
      <feGaussianBlur stdDeviation="2"/>
      <feColorMatrix values="0 0 0 0 0 0 0 0 0 0 0 0 0 0 0 0 0 0 0.25 0"/>
      <feBlend in2="BackgroundImageFix" result="effect1_dropShadow"/>
      <feBlend in="SourceGraphic" in2="effect1_dropShadow" result="shape"/>
    </filter>
    <filter id="filter2_d" x="122.88" y="62.56" width="86.31" height="109.51" filterUnits="userSpaceOnUse" color-interpolation-filters="sRGB">
      <feFlood flood-opacity="0" result="BackgroundImageFix"/>
      <feColorMatrix in="SourceAlpha" values="0 0 0 0 0 0 0 0 0 0 0 0 0 0 0 0 0 0 127 0"/>
      <feOffset dy="4"/>
      <feGaussianBlur stdDeviation="2"/>
      <feColorMatrix values="0 0 0 0 0 0 0 0 0 0 0 0 0 0 0 0 0 0 0.25 0"/>
      <feBlend in2="BackgroundImageFix" result="effect1_dropShadow"/>
      <feBlend in="SourceGraphic" in2="effect1_dropShadow" result="shape"/>
    </filter>
    <linearGradient id="paint0_linear" x1="81.5" y1="-317.5" x2="158" y2="551.5" gradientUnits="userSpaceOnUse">
      <stop offset=".45" stop-color="#EC1515"/>
      <stop offset="1" stop-color="#3666AD" stop-opacity="0"/>
    </linearGradient>
  </defs>
</svg>
